<svg width="379" height="672" viewBox="0 0 379 672" fill="none" xmlns="http://www.w3.org/2000/svg">
<g clip-path="url(#clip0_159_1391)">
<rect width="379" height="672" rx="8" fill="white"/>
<path fill-rule="evenodd" clip-rule="evenodd" d="M379 156.91L363.208 155.055C347.417 153.2 315.833 149.224 284.25 155.055C252.667 160.885 221.083 175.991 189.5 191.361C157.917 206.467 126.333 221.838 94.75 219.983C63.1667 218.128 31.5833 199.047 15.7917 189.506L0 179.966V260H15.7917C31.5833 260 63.1667 260 94.75 260C126.333 260 157.917 260 189.5 260C221.083 260 252.667 260 284.25 260C315.833 260 347.417 260 363.208 260H379V156.91Z" fill="url(#paint0_linear_159_1391)"/>
<path d="M379 187.246C199 271 201.5 109 0 187.246C0 242.366 0 532 0 532H379V187.246Z" fill="url(#paint1_linear_159_1391)"/>
<path fill-rule="evenodd" clip-rule="evenodd" d="M0 216.716L16 208.55C32 199.477 63 182.239 95 187.682C126 193.126 158 220.345 190 222.159C221 223.974 253 199.477 284 185.868C316 172.258 347 168.629 363 166.815L379 165V673H363C347 673 316 673 284 673C253 673 221 673 190 673C158 673 126 673 95 673C63 673 32 673 16 673H0L0 216.716Z" fill="#880606"/>
<path fill-rule="evenodd" clip-rule="evenodd" d="M0 216.716L16 208.55C32 199.477 63 182.239 95 187.682C126 193.126 158 220.345 190 222.159C221 223.974 253 199.477 284 185.868C316 172.258 347 168.629 363 166.815L379 165V673H363C347 673 316 673 284 673C253 673 221 673 190 673C158 673 126 673 95 673C63 673 32 673 16 673H0L0 216.716Z" fill="#F3DA1D"/>
<path d="M38.1411 0H97.5L-0.641129 158H-60L38.1411 0Z" fill="#5A9B37"/>
<path d="M29.3158 67.8475C30.2168 68.4059 30.9577 69.077 31.5387 69.8607C32.1232 70.6387 32.5238 71.4792 32.7405 72.3822C32.9608 73.2796 32.9918 74.2165 32.8336 75.193C32.6698 76.166 32.2946 77.1256 31.708 78.0719C31.1214 79.0182 30.4289 79.7811 29.6304 80.3607C28.8262 80.9368 27.9715 81.3287 27.0664 81.5363C26.1612 81.7438 25.2284 81.7618 24.2681 81.5901C23.3114 81.4127 22.3825 81.0448 21.4815 80.4864C20.5806 79.9279 19.8407 79.2614 19.2619 78.4869C18.6809 77.7033 18.2821 76.8599 18.0653 75.9569C17.8485 75.0539 17.8221 74.1159 17.986 73.1429C18.1442 72.1664 18.5166 71.205 19.1031 70.2587C19.6897 69.3124 20.385 68.5512 21.1892 67.9751C21.9877 67.3955 22.8406 67.0065 23.748 66.8081C24.6532 66.6005 25.5841 66.5854 26.5409 66.7628C27.4956 66.931 28.4205 67.2925 29.3158 67.8475ZM27.6984 70.4569C27.0524 70.0564 26.4217 69.7832 25.8064 69.6371C25.1854 69.4874 24.5963 69.4635 24.0391 69.5652C23.4798 69.6577 22.9644 69.8755 22.4929 70.2186C22.0192 70.5525 21.6033 71.0084 21.245 71.5864C20.8868 72.1643 20.6617 72.7425 20.5699 73.3209C20.4724 73.8958 20.5048 74.4571 20.6673 75.0049C20.8276 75.5435 21.1128 76.0576 21.5231 76.5472C21.9277 77.0333 22.453 77.4766 23.099 77.877C23.7506 78.2809 24.3869 78.5577 25.0079 78.7073C25.6233 78.8534 26.2078 78.8785 26.7615 78.7824C27.3187 78.6807 27.8358 78.4601 28.313 78.1205C28.7845 77.7775 29.1993 77.3169 29.5576 76.739C29.9159 76.161 30.142 75.5874 30.236 75.0182C30.3278 74.4398 30.2936 73.8813 30.1333 73.3427C29.9765 72.7984 29.6958 72.2833 29.2912 71.7972C28.881 71.3075 28.35 70.8608 27.6984 70.4569ZM27.8964 60.8368L31.3047 62.9495L34.0549 58.5127L36.0608 59.7561L33.3106 64.1929L38.2319 67.2433L36.6408 69.8102L24.3079 62.1656L29.176 54.312L31.1734 55.5501L27.8964 60.8368ZM33.8646 51.2084L37.2729 53.3211L40.0231 48.8843L42.029 50.1277L39.2788 54.5644L44.2001 57.6149L42.609 60.1818L30.2761 52.5372L35.1442 44.6836L37.1416 45.9217L33.8646 51.2084ZM39.8328 41.58L43.0032 43.5451L45.5531 39.4313L47.4825 40.6273L44.9326 44.7411L48.1709 46.7484L51.4479 41.4616L53.4453 42.6997L48.5772 50.5533L36.2443 42.9087L41.1124 35.0551L43.1098 36.2932L39.8328 41.58ZM50.526 32.9082C50.7824 32.4945 50.9527 32.1059 51.0368 31.7424C51.1153 31.3753 51.1236 31.0393 51.0617 30.7342C50.9942 30.4257 50.8638 30.1488 50.6707 29.9036C50.4776 29.6584 50.2337 29.4444 49.939 29.2618C49.3554 28.9 48.7809 28.8145 48.2156 29.0053C47.6537 29.1904 47.127 29.6796 46.6352 30.4729L45.8133 31.7988L49.7147 34.2171L50.526 32.9082ZM60.7234 30.9581L59.2957 33.2615C59.0287 33.6921 58.6712 33.9019 58.2232 33.8909L52.9867 33.8923C52.7797 33.8973 52.6053 33.9382 52.4636 34.015C52.3253 34.0862 52.1859 34.2351 52.0455 34.4618L51.5081 35.3287L56.2083 38.2422L54.6278 40.7921L42.2949 33.1475L44.6973 29.2717C45.2312 28.4104 45.7785 27.73 46.3391 27.2304C46.8941 26.7273 47.4514 26.3786 48.0111 26.1843C48.5708 25.99 49.1278 25.9392 49.6822 26.0319C50.2309 26.121 50.7687 26.3289 51.2957 26.6555C51.7037 26.9084 52.0549 27.2085 52.3495 27.5558C52.6419 27.8939 52.8698 28.2665 53.0331 28.6737C53.1964 29.0808 53.2942 29.5179 53.3263 29.9849C53.3584 30.4519 53.3171 30.9361 53.2024 31.4375C53.3949 31.3294 53.6002 31.2449 53.8183 31.184C54.0308 31.1196 54.26 31.0852 54.5059 31.0808L60.7234 30.9581Z" fill="white"/>
</g>
<defs>
<linearGradient id="paint0_linear_159_1391" x1="189.5" y1="152" x2="189.5" y2="260" gradientUnits="userSpaceOnUse">
<stop stop-color="#FEEBA6" stop-opacity="0.9"/>
<stop offset="1" stop-color="#FFCD13" stop-opacity="0"/>
</linearGradient>
<linearGradient id="paint1_linear_159_1391" x1="189.5" y1="166" x2="189.5" y2="532" gradientUnits="userSpaceOnUse">
<stop stop-color="#FFE585" stop-opacity="0.5"/>
<stop offset="1" stop-color="#FFCD13" stop-opacity="0"/>
</linearGradient>
<clipPath id="clip0_159_1391">
<rect width="379" height="672" rx="8" fill="white"/>
</clipPath>
</defs>
</svg>
